<svg width="30" height="30" viewBox="0 0 30 30" fill="none" xmlns="http://www.w3.org/2000/svg">
<path d="M25.925 8.42851C25.3725 7.87601 24.48 7.87601 23.9275 8.42851L17 15.3418L10.0725 8.41434C9.52002 7.86184 8.62752 7.86184 8.07502 8.41434C7.52252 8.96684 7.52252 9.85934 8.07502 10.4118L15.0025 17.3393L8.07502 24.2668C7.52252 24.8193 7.52252 25.7118 8.07502 26.2643C8.62752 26.8168 9.52002 26.8168 10.0725 26.2643L17 19.3368L23.9275 26.2643C24.48 26.8168 25.3725 26.8168 25.925 26.2643C26.4775 25.7118 26.4775 24.8193 25.925 24.2668L18.9975 17.3393L25.925 10.4118C26.4634 9.87351 26.4634 8.96684 25.925 8.42851Z" fill="white" fill-opacity="0.5"/>
</svg>
